<svg data-v-423bf9ae="" xmlns="http://www.w3.org/2000/svg" viewBox="0 0 458 101" class="iconLeft"><!----><!----><!----><g data-v-423bf9ae="" id="a7b07937-ed79-4e3e-9e15-e5dc83c96c46" fill="black" transform="matrix(4.716981410980225,0,0,4.716981410980225,122.39791107177734,3.4999887943267822)"><path d="M8.46 11.58L2.66 4.02C2.58 3.93 2.51 3.86 2.45 3.84C2.39 3.81 2.30 3.79 2.18 3.79L0.48 3.79L0.48 4.40C0.48 4.54 0.55 4.63 0.69 4.66C0.77 4.69 1.04 4.75 1.48 4.83L1.48 12.81L0.69 12.98C0.55 13.01 0.48 13.09 0.48 13.23L0.48 13.83L3.81 13.83L3.81 13.23C3.81 13.09 3.75 13.01 3.61 12.98C3.54 12.96 3.23 12.89 2.67 12.81L2.67 6.68C2.67 6.48 2.67 6.27 2.65 6.03L8.46 13.59C8.60 13.76 8.74 13.83 8.93 13.83L9.62 13.83L9.62 4.83L10.42 4.66C10.56 4.63 10.64 4.55 10.64 4.41L10.64 3.79L9.62 3.79L8.43 3.79L7.28 3.79L7.28 4.41C7.28 4.55 7.36 4.63 7.50 4.66C7.59 4.68 7.88 4.75 8.43 4.83L8.43 10.91C8.43 11.16 8.43 11.41 8.46 11.61ZM14.48 6.62C13.97 6.62 13.51 6.71 13.09 6.89C12.67 7.07 12.32 7.32 12.04 7.63C11.76 7.94 11.54 8.33 11.38 8.75C11.23 9.17 11.14 9.62 11.14 10.12C11.14 10.74 11.23 11.27 11.40 11.75C11.56 12.22 11.79 12.61 12.10 12.94C12.40 13.26 12.75 13.51 13.17 13.68C13.59 13.85 14.04 13.93 14.53 13.93C14.78 13.93 15.05 13.90 15.30 13.86C15.55 13.82 15.81 13.75 16.06 13.66C16.31 13.58 16.52 13.45 16.74 13.31C16.97 13.17 17.15 13.03 17.30 12.84L16.95 12.38C16.90 12.29 16.83 12.25 16.72 12.25C16.63 12.25 16.55 12.29 16.44 12.36C16.32 12.43 16.18 12.50 16.02 12.59C15.85 12.67 15.65 12.75 15.43 12.82C15.20 12.89 14.92 12.92 14.62 12.92C14.28 12.92 14 12.87 13.72 12.75C13.44 12.64 13.22 12.47 13.02 12.25C12.82 12.03 12.66 11.77 12.54 11.44C12.43 11.10 12.38 10.71 12.38 10.26L17.08 10.26C17.19 10.26 17.29 10.22 17.33 10.16C17.37 10.11 17.39 9.97 17.39 9.77C17.39 9.27 17.30 8.82 17.16 8.43C17.02 8.04 16.80 7.70 16.55 7.43C16.30 7.17 15.99 6.97 15.62 6.83C15.26 6.69 14.87 6.62 14.45 6.62ZM14.48 7.55C14.76 7.55 15.02 7.59 15.25 7.69C15.47 7.78 15.67 7.92 15.82 8.09C15.97 8.26 16.07 8.48 16.16 8.72C16.24 8.96 16.28 9.23 16.28 9.51L12.43 9.51C12.52 8.89 12.74 8.40 13.08 8.05C13.41 7.70 13.89 7.53 14.49 7.53ZM21.80 6.62C21.28 6.62 20.82 6.71 20.40 6.87C19.98 7.04 19.61 7.29 19.32 7.60C19.03 7.91 18.80 8.30 18.63 8.75C18.47 9.20 18.41 9.70 18.41 10.26C18.41 10.82 18.47 11.33 18.63 11.77C18.80 12.22 19.03 12.61 19.32 12.92C19.61 13.23 19.98 13.48 20.40 13.65C20.82 13.82 21.28 13.90 21.80 13.90C22.32 13.90 22.78 13.82 23.20 13.65C23.62 13.48 23.98 13.23 24.28 12.92C24.57 12.61 24.79 12.22 24.95 11.77C25.10 11.33 25.19 10.82 25.19 10.26C25.19 9.70 25.10 9.20 24.95 8.75C24.79 8.30 24.57 7.91 24.28 7.60C23.98 7.29 23.62 7.04 23.20 6.87C22.78 6.71 22.32 6.62 21.80 6.62ZM21.80 12.95C21.43 12.95 21.13 12.87 20.87 12.75C20.62 12.64 20.40 12.47 20.23 12.25C20.06 12.03 19.92 11.75 19.84 11.41C19.75 11.07 19.70 10.71 19.70 10.29C19.70 9.87 19.75 9.48 19.84 9.14C19.92 8.81 20.06 8.53 20.23 8.30C20.40 8.08 20.62 7.88 20.87 7.77C21.13 7.66 21.43 7.60 21.80 7.60C22.50 7.60 23.03 7.83 23.37 8.30C23.70 8.78 23.88 9.44 23.88 10.28C23.88 11.12 23.70 11.77 23.37 12.25C23.03 12.73 22.50 12.95 21.80 12.95ZM30.87 12.84C29.78 12.84 28.90 12.47 28.22 11.77C27.54 11.05 27.20 10.07 27.20 8.81C27.20 7.60 27.52 6.64 28.20 5.92C28.52 5.59 28.91 5.32 29.36 5.14C29.81 4.96 30.39 4.86 31.07 4.86C31.74 4.86 32.34 4.94 32.87 5.08C33.01 5.11 33.17 5.17 33.39 5.24C33.45 6.02 33.50 6.44 33.50 6.51C33.53 6.68 33.63 6.73 33.80 6.73L34.47 6.73L34.47 4.41C33.19 3.93 32.02 3.68 30.93 3.68C29.36 3.68 28.11 4.16 27.17 5.11C26.25 6.03 25.80 7.27 25.80 8.81C25.80 10.32 26.26 11.56 27.19 12.52C28.11 13.47 29.30 13.93 30.76 13.93C32.30 13.93 33.56 13.58 34.57 12.85L34.57 9.00L31.49 9.00L31.49 9.77C31.49 9.86 31.51 9.90 31.57 9.95C31.63 10.01 31.71 10.04 31.79 10.04L33.35 10.04L33.35 12.25C32.61 12.64 31.79 12.84 30.87 12.84ZM37.73 8.18L37.65 7.07C37.62 6.94 37.59 6.86 37.53 6.80C37.48 6.75 37.41 6.73 37.27 6.73L36.55 6.73L35.55 6.73L35.55 7.32C35.55 7.46 35.62 7.56 35.76 7.59C35.84 7.62 36.11 7.67 36.55 7.76L36.55 12.81L35.76 12.96C35.62 12.99 35.55 13.09 35.55 13.23L35.55 13.82L38.81 13.82L38.81 13.23C38.81 13.09 38.74 12.99 38.60 12.96C38.18 12.88 37.91 12.84 37.80 12.81L37.80 9.31C38.19 8.33 38.81 7.83 39.62 7.83C39.87 7.83 40.05 7.85 40.19 7.90C40.33 7.94 40.45 7.97 40.53 7.97C40.61 7.97 40.68 7.90 40.71 7.78L40.87 6.85C40.59 6.68 40.26 6.59 39.90 6.59C38.98 6.59 38.26 7.13 37.74 8.18ZM47.46 12.95C47.38 12.92 46.96 12.84 46.76 12.80L46.76 9.25C46.76 8.86 46.72 8.50 46.61 8.16C46.49 7.83 46.34 7.55 46.13 7.32C45.92 7.10 45.67 6.93 45.36 6.79C45.05 6.65 44.69 6.59 44.30 6.59C43.74 6.59 43.23 6.68 42.78 6.87C42.34 7.07 41.92 7.34 41.52 7.71L41.75 8.11C41.78 8.16 41.83 8.23 41.89 8.27C41.94 8.32 42.03 8.33 42.11 8.33C42.22 8.33 42.32 8.30 42.43 8.22C42.55 8.13 42.69 8.06 42.84 7.97C42.99 7.87 43.16 7.80 43.37 7.71C43.58 7.63 43.83 7.59 44.14 7.59C44.60 7.59 44.95 7.74 45.19 8.02C45.43 8.30 45.56 8.72 45.56 9.28L45.56 9.83C44.74 9.83 44.07 9.88 43.51 10.01C42.95 10.14 42.50 10.32 42.17 10.51C41.83 10.71 41.57 10.96 41.41 11.21C41.26 11.47 41.19 11.75 41.19 12.03C41.19 12.35 41.23 12.63 41.34 12.87C41.45 13.10 41.59 13.30 41.76 13.45C41.93 13.61 42.15 13.71 42.39 13.79C42.63 13.87 42.87 13.92 43.15 13.92C43.43 13.92 43.68 13.90 43.90 13.85C44.13 13.79 44.32 13.72 44.52 13.64C44.72 13.55 44.91 13.44 45.08 13.30C45.25 13.16 45.44 13.01 45.64 12.84L45.78 13.51C45.81 13.62 45.84 13.71 45.92 13.73C46.00 13.76 46.10 13.79 46.21 13.79L46.66 13.79L46.76 13.79L47.67 13.79L47.67 13.19C47.67 13.06 47.59 12.95 47.46 12.92ZM45.53 12.08C45.39 12.22 45.25 12.36 45.11 12.47C44.97 12.59 44.81 12.70 44.65 12.78C44.48 12.87 44.31 12.92 44.13 12.96C43.95 13.01 43.76 13.03 43.54 13.03C43.37 13.03 43.22 13.01 43.08 12.96C42.94 12.92 42.83 12.87 42.71 12.78C42.60 12.70 42.52 12.59 42.46 12.45C42.41 12.31 42.36 12.17 42.36 11.97C42.36 11.77 42.42 11.61 42.53 11.44C42.64 11.27 42.84 11.13 43.09 11.02C43.34 10.91 43.68 10.79 44.07 10.72C44.46 10.65 44.95 10.63 45.53 10.63ZM50.43 7.83L50.33 6.99C50.27 6.82 50.16 6.73 49.99 6.73L49.24 6.73L48.23 6.73L48.23 7.32C48.23 7.46 48.31 7.56 48.45 7.59C48.54 7.62 48.79 7.67 49.24 7.76L49.24 15.20L48.45 15.36C48.31 15.39 48.23 15.48 48.23 15.62L48.23 16.23L51.51 16.23L51.51 15.62C51.51 15.48 51.42 15.39 51.28 15.36C51.25 15.36 51.11 15.33 50.88 15.27C50.64 15.22 50.51 15.19 50.50 15.19L50.50 13.09C51.00 13.65 51.67 13.92 52.54 13.92C53.41 13.92 54.14 13.55 54.70 12.85C55.23 12.18 55.51 11.30 55.51 10.23C55.51 9.07 55.26 8.16 54.78 7.52C54.31 6.90 53.66 6.59 52.82 6.59C51.90 6.59 51.11 7.01 50.44 7.83ZM50.50 12.11L50.50 8.68C51.03 7.97 51.67 7.60 52.40 7.60C53.61 7.60 54.22 8.50 54.22 10.23C54.22 11.10 54.05 11.77 53.69 12.25C53.33 12.73 52.79 12.95 52.12 12.95C51.45 12.95 50.92 12.67 50.50 12.11ZM58.56 7.69L58.56 3.51L56.15 3.51L56.15 4.10C56.15 4.24 56.24 4.34 56.38 4.37C56.46 4.40 56.77 4.45 57.30 4.54L57.30 12.81L56.52 12.96C56.38 12.99 56.29 13.09 56.29 13.23L56.29 13.82L59.57 13.82L59.57 13.23C59.57 13.09 59.49 12.99 59.35 12.96C59.29 12.95 59.09 12.91 58.73 12.84L58.56 12.81L58.56 8.61C59.15 7.95 59.77 7.62 60.47 7.62C61.46 7.62 61.96 8.19 61.96 9.31L61.96 13.82L64.22 13.82L64.22 13.23C64.22 13.09 64.15 12.99 64.01 12.96C63.92 12.94 63.66 12.88 63.21 12.80L63.21 9.31C63.21 8.50 63.00 7.83 62.59 7.35C62.17 6.86 61.59 6.62 60.83 6.62C59.98 6.62 59.23 6.99 58.56 7.69ZM68.18 6.62C67.68 6.62 67.21 6.71 66.79 6.89C66.37 7.07 66.02 7.32 65.74 7.63C65.46 7.94 65.24 8.33 65.09 8.75C64.93 9.17 64.85 9.62 64.85 10.12C64.85 10.74 64.93 11.27 65.10 11.75C65.27 12.22 65.49 12.61 65.80 12.94C66.11 13.26 66.46 13.51 66.88 13.68C67.30 13.85 67.75 13.93 68.24 13.93C68.49 13.93 68.75 13.90 69.01 13.86C69.26 13.82 69.51 13.75 69.76 13.66C70.01 13.58 70.22 13.45 70.45 13.31C70.67 13.17 70.85 13.03 71.01 12.84L70.66 12.38C70.60 12.29 70.53 12.25 70.42 12.25C70.34 12.25 70.25 12.29 70.14 12.36C70.03 12.43 69.89 12.50 69.72 12.59C69.55 12.67 69.36 12.75 69.13 12.82C68.91 12.89 68.63 12.92 68.32 12.92C67.98 12.92 67.70 12.87 67.42 12.75C67.14 12.64 66.92 12.47 66.72 12.25C66.53 12.03 66.36 11.77 66.25 11.44C66.14 11.10 66.08 10.71 66.08 10.26L70.78 10.26C70.90 10.26 70.99 10.22 71.04 10.16C71.08 10.11 71.09 9.97 71.09 9.77C71.09 9.27 71.01 8.82 70.87 8.43C70.73 8.04 70.50 7.70 70.25 7.43C70.00 7.17 69.69 6.97 69.33 6.83C68.96 6.69 68.57 6.62 68.15 6.62ZM68.18 7.55C68.46 7.55 68.73 7.59 68.95 7.69C69.17 7.78 69.37 7.92 69.52 8.09C69.68 8.26 69.78 8.48 69.86 8.72C69.94 8.96 69.99 9.23 69.99 9.51L66.14 9.51C66.22 8.89 66.44 8.40 66.78 8.05C67.12 7.70 67.59 7.53 68.19 7.53Z"></path></g><!----><g data-v-423bf9ae="" id="7ade0384-f0ef-4a40-9abb-4a89b7934d18" transform="matrix(1.0546889305114746,0,0,1.0546889305114746,-0.3519781827926636,-2.195449113845825)" stroke="none" fill="black"><path d="M9.007 62.299V47.49H2.804v3.181h2.422v11.628zM27.707 50.671h2.421v11.628h3.782V47.49h-6.203zM16.171 68.307h2.421v11.626h3.782v-14.81h-6.203zM16.171 85.554h2.421V97.18h3.782V82.37h-6.203zM27.707 68.307h2.421v11.626h3.782v-14.81h-6.203zM21.594 47.688a5.88 5.88 0 0 0-2.262-.48c-.76 0-1.52.161-2.241.442-2.241.899-3.342 2.799-3.342 5.182v4.121c0 2.363 1.121 4.244 3.322 5.164.72.302 1.48.46 2.261.46.841 0 1.681-.182 2.441-.539 2.082-.96 3.022-2.863 3.022-5.085v-4.121c0-2.321-1.04-4.202-3.201-5.144zm-.581 9.368c0 1.159-.38 2.198-1.741 2.198-1.301 0-1.741-1.06-1.741-2.198v-4.323c0-1.122.44-2.202 1.741-2.202 1.361 0 1.741 1.04 1.741 2.202v4.323zM89.854 68.307h2.423v11.626h3.782v-14.81h-6.205zM89.854 85.554h2.423V97.18h3.782V82.37h-6.205zM95.278 47.688c-.7-.3-1.501-.48-2.261-.48s-1.521.161-2.242.442c-2.241.899-3.341 2.799-3.341 5.182v4.121c0 2.363 1.121 4.244 3.322 5.164.72.302 1.479.46 2.261.46.84 0 1.68-.182 2.441-.539 2.082-.96 3.021-2.863 3.021-5.085v-4.121c0-2.321-1.041-4.202-3.201-5.144zm-.581 9.368c0 1.159-.38 2.198-1.741 2.198-1.301 0-1.739-1.06-1.739-2.198v-4.323c0-1.122.438-2.202 1.739-2.202 1.361 0 1.741 1.04 1.741 2.202v4.323zM73.262 79.933v-14.81H67.06v3.184h2.42v11.626zM78.595 68.307h2.421v11.626h3.783v-14.81h-6.204zM72.482 82.571a5.915 5.915 0 0 0-2.261-.479c-.762 0-1.522.159-2.241.44-2.241.9-3.344 2.801-3.344 5.181v4.124c0 2.36 1.122 4.244 3.323 5.164a5.87 5.87 0 0 0 2.262.46c.841 0 1.68-.182 2.439-.542 2.082-.96 3.022-2.86 3.022-5.082v-4.124c.002-2.32-1.038-4.198-3.2-5.142zm-.581 9.366c0 1.162-.379 2.201-1.741 2.201-1.3 0-1.739-1.06-1.739-2.201v-4.32c0-1.122.439-2.204 1.739-2.204 1.362 0 1.741 1.043 1.741 2.204v4.32zM8.228 65.324a5.865 5.865 0 0 0-2.263-.479c-.76 0-1.52.158-2.239.439-2.242.9-3.343 2.801-3.343 5.185v4.121c0 2.36 1.121 4.241 3.322 5.164a5.894 5.894 0 0 0 2.26.457c.842 0 1.682-.179 2.441-.539 2.082-.961 3.022-2.86 3.022-5.082v-4.121c.001-2.324-1.04-4.204-3.2-5.145zm-.582 9.365c0 1.162-.38 2.201-1.741 2.201-1.3 0-1.74-1.062-1.74-2.201v-4.323c0-1.119.44-2.198 1.74-2.198 1.361 0 1.741 1.039 1.741 2.198v4.323zM46.418 62.299V47.49h-6.203v3.181h2.422v11.628zM53.582 68.307h2.422v11.626h3.781v-14.81h-6.203zM53.582 85.554h2.422V97.18h3.781V82.37h-6.203zM45.639 65.324a5.869 5.869 0 0 0-2.263-.479c-.76 0-1.52.158-2.24.439-2.242.9-3.342 2.801-3.342 5.185v4.121c0 2.36 1.121 4.241 3.322 5.164a5.894 5.894 0 0 0 2.26.457c.842 0 1.682-.179 2.441-.539 2.082-.961 3.022-2.86 3.022-5.082v-4.121c.001-2.324-1.04-4.204-3.2-5.145zm-.581 9.365c0 1.162-.38 2.201-1.741 2.201-1.3 0-1.74-1.062-1.74-2.201v-4.323c0-1.119.44-2.198 1.74-2.198 1.361 0 1.741 1.039 1.741 2.198v4.323z"></path><path d="M81.751 44.757l1.139.001 11.635.021.425-.427c2.887-3.004 4.668-7.079 4.668-11.563 0-8.235-5.993-15.094-13.842-16.455-.017-.003-.033-.006-.051-.007-1.388-7.824-8.229-13.788-16.444-13.788-7.739 0-14.262 5.292-16.151 12.447a16.623 16.623 0 0 0-10.459-3.694c-8.319 0-15.236 6.114-16.499 14.085a16.596 16.596 0 0 0-9.083-2.697C7.878 22.68.383 30.175.383 39.385c0 1.814.294 3.562.832 5.197l.001.018h.006l5.785.01 20.144.04 5.785.011 7.922.017.911.001c.298.016.6.024.902.024v-.024l1.811.004c.014-.003.029-.004.044-.006l6.111.016a16.697 16.697 0 0 0 2.228 3.975c-1.134 1.021-1.704 2.466-1.704 4.164v4.121c0 2.363 1.121 4.244 3.322 5.164.72.302 1.479.46 2.261.46.841 0 1.682-.182 2.441-.539 2.081-.96 3.021-2.863 3.021-5.085v-2.088c.79.195 1.602.33 2.431.408v1.68c0 2.363 1.122 4.244 3.323 5.164.719.302 1.48.46 2.262.46.841 0 1.68-.182 2.439-.539 2.082-.96 3.022-2.863 3.022-5.085v-4.558a16.935 16.935 0 0 0 2.098-1.725h3.234v11.628h3.783V47.49h-4.441a16.651 16.651 0 0 0 1.394-2.733zm-51.28-5.319l-2.021-.003-22.721-.045v-.007c0-6.265 5.097-11.362 11.361-11.362 4.293 0 8.036 2.396 9.967 5.916a1.425 1.425 0 0 1-.026-.078 16.726 16.726 0 0 0 3.487 5.58h-.047zm27.954 17.618c0 1.159-.381 2.198-1.741 2.198-1.301 0-1.741-1.06-1.741-2.198v-4.323c0-.536.104-1.059.352-1.463a16.76 16.76 0 0 0 3.131 2.146v3.64zm13.476 0c0 1.159-.379 2.198-1.741 2.198-1.3 0-1.739-1.06-1.739-2.198v-1.858a16.52 16.52 0 0 0 3.48-.855v2.713zm-5.693-7.051c-5.985 0-10.896-4.647-11.328-10.521v-.003c-.003-.021-.006-.04-.006-.061l-5.354-.011.005.064-7.441-.017c-5.993-.312-10.774-5.396-10.774-11.464.001-6.259 5.097-11.354 11.363-11.354 6.265 0 11.361 5.094 11.361 11.36h5.345c0-.312-.012-.621-.027-.927-.005-.088-.016-.178-.021-.264a14.745 14.745 0 0 0-.059-.667l-.031-.244a16.67 16.67 0 0 0-.105-.721l-.02-.124a17.008 17.008 0 0 0-.632-2.436l-.559-3.372c0-6.265 5.095-11.362 11.36-11.362 5.282 0 9.73 3.623 11 8.514a.603.603 0 0 1 .05-.007 11.278 11.278 0 0 1 .038 5.324 11.488 11.488 0 0 1 2.542-.288c.997 0 1.966.13 2.887.374 4.871 1.281 8.473 5.721 8.473 10.987 0 2.534-.835 4.877-2.244 6.77l-14.512-.018c.004.011.012.022.015.033a10.769 10.769 0 0 1-.837 3.437c-1.714 4.103-5.771 6.998-10.489 6.998z"></path></g><!----></svg>